<?xml version="1.0" encoding="UTF-8"?>
<svg xmlns="http://www.w3.org/2000/svg" xmlns:xlink="http://www.w3.org/1999/xlink" width="321.463" height="36.31" viewBox="0 0 321.463 36.31">
  <defs>
    <clipPath id="a">
      <rect width="321.463" height="36.31" fill="none"></rect>
    </clipPath>
    <clipPath id="b">
      <rect width="321.463" height="30.94" fill="none"></rect>
    </clipPath>
  </defs>
  <g transform="translate(0)">
    <g transform="translate(0)" clip-path="url(#a)">
      <path d="M235.488,21.5a5.53,5.53,0,0,1-4.647,2.991h-11.3c-2.977,0-5.4-2.991-5.4-5.732a5.741,5.741,0,0,1,5.4-5.62h11.3a5.512,5.512,0,0,1,4.647,2.935h8.236C242.3,9.758,236.1,6.6,230.813,6.6H219.573c-6,0-13.2,4.09-13.2,12.229S213.576,31,219.559,31h11.3c5.273,0,11.505-3.214,12.9-9.488H235.5Z" transform="translate(77.726 2.582)" fill="#fff"></path>
      <path d="M53.98,6.63h-11.2C36.8,6.63,29.62,10.706,29.62,18.817S36.8,30.948,42.753,30.948H53.994c5.954,0,13.133-4.118,13.133-12.117S59.948,6.644,53.966,6.644m.028,17.821H42.739c-2.977,0-5.37-2.977-5.37-5.7a5.711,5.711,0,0,1,5.37-5.593H53.994c2.991,0,5.37,2.922,5.37,5.593s-2.407,5.7-5.37,5.7" transform="translate(8.582 2.594)" fill="#fff"></path>
      <rect width="7.86" height="24.235" transform="translate(272.368 9.279)" fill="#fff"></rect>
      <rect width="7.832" height="4.438" transform="translate(272.368 2.713)" fill="#fff"></rect>
      <path d="M145.587,14.912c-1.864-5.5-7.582-8.292-12.493-8.292H117.04V30.938h7.9l.042-17.779h8.125a5.148,5.148,0,0,1,3.714,1.7m0,0a6.475,6.475,0,0,1,.9,1.224h8.208q-.146-.605-.334-1.169" transform="translate(42.78 2.59)" fill="#fff"></path>
      <path d="M66.833,6.658H59.14V18.845c0,8.041,7.137,12.1,13.063,12.1H94.768V6.63H87.075V24.437h-14.8A5.782,5.782,0,0,1,66.847,18.9V6.658Z" transform="translate(20.13 2.594)" fill="#fff"></path>
    </g>
    <g transform="translate(0 2.685)" clip-path="url(#b)">
      <path d="M197.1,30.948H204.8l-.042-12.215c0-8.041-7.123-12.089-13.049-12.089-3.283,0-22.593-.014-22.593-.014l.042,24.318h7.665V13.155s13.355-.028,14.816-.014a5.782,5.782,0,0,1,5.426,5.537l.028,12.27Z" transform="translate(63.154 -0.091)" fill="#fff"></path>
      <path d="M9.909,11.3c.028-1.016,1.238-2.838,4.48-2.81,1.489,0,22.454-.028,22.454-.028V1.94H14.417C5.513,1.94,2.2,8.618,2.16,11.261c-.07,5.133,3.408,9.363,11.964,9.363H25.685c3.186,0,4.549,1.725,4.549,2.81,0,.946-1.294,2.81-4.577,2.81-6.191,0-16.833-.028-22.8,0v6.511H25.978c7.735,0,12.034-5.926,12.034-9.293,0-4.146-2.615-9.418-12.062-9.4h-11.6c-3.2,0-4.452-1.711-4.438-2.768" transform="translate(-2.16 -1.926)" fill="#fff"></path>
      <path d="M123.485,32.773l.028-30.843h-7.638V8.469s-12.4.028-15.707.028c-5.982,0-13.119,4.146-13.119,12.256s7.192,12.02,13.147,12.02h23.289Zm-23.316-6.511A5.673,5.673,0,0,1,94.813,20.7c0-2.741,2.379-5.676,5.384-5.676H115.89V26.276s-12.743-.014-15.721-.014" transform="translate(31.048 -1.93)" fill="#fff"></path>
    </g>
    <g transform="translate(0)" clip-path="url(#a)">
      <path d="M163.68,6.63h-11.2c-5.982,0-13.161,4.076-13.161,12.187s7.179,12.131,13.133,12.131h11.241c5.954,0,13.133-4.118,13.133-12.117S169.648,6.644,163.666,6.644m.028,17.821H152.439c-2.977,0-5.37-2.977-5.37-5.7a5.711,5.711,0,0,1,5.37-5.593h11.255c2.991,0,5.37,2.922,5.37,5.593s-2.393,5.7-5.37,5.7" transform="translate(51.496 2.594)" fill="#fff"></path>
    </g>
  </g>
</svg>
